<?xml version="1.0" standalone="yes"?>
<svg width="117" height="128">
<path style="fill:#000000; stroke:none;" d="M0 0L0 128L117 128L117 0L0 0z"/>
<path style="fill:#ebb100; stroke:none;" d="M5 65L7 65C7 56.7954 4.46048 43.3239 8.93827 36.0934C15.0794 26.177 35.0174 19.3018 45 13.5787C48.7184 11.447 53.5429 7.44907 58 7.44907C62.4571 7.44907 67.2816 11.447 71 13.5787C80.9292 19.2711 100.966 26.2496 107.062 36.0934C111.54 43.3239 109 56.7954 109 65L111 65C111 56.5986 114.124 40.2329 109.258 33.1042C102.208 22.7763 81.6847 15.9213 71 9.60339C66.8873 7.17152 62.0154 3.77888 57 4.25617C47.0006 5.20777 35.5469 15.088 27 20C20.7548 23.5892 9.68839 27.418 6.17901 34.0432C2.14527 41.6583 5 56.4957 5 65z"/>
<path style="fill:#afcb21; stroke:none;" d="M72 4L76 11L80 4L72 4z"/>
<path style="fill:#ffffff; stroke:none;" d="M55 7.70293C42.6565 11.5397 30.1328 21.4499 19 27.9892C14.5634 30.5952 9.30105 32.6598 7.72377 38.0147C4.26335 49.7627 7 65.7889 7 78C7 82.5957 5.93692 88.8422 8.74228 92.8148C13.9559 100.198 27.3388 104.638 35 109.201C41.6057 113.135 52.9163 122.81 61 120.297C73.3763 116.45 85.769 106.455 97 100C101.388 97.4777 106.872 95.2648 108.427 89.9853C111.852 78.3601 109 62.1028 109 50C109 45.2946 109.762 39.3415 107.062 35.1852C102.201 27.703 87.653 22.5193 80 18.1505C73.4637 14.4192 62.9275 5.23885 55 7.70293z"/>
<path style="fill:#bd951d; stroke:none;" d="M60 11L62 16L64 16L66 11L60 11z"/>
<path style="fill:#ebb100; stroke:none;" d="M54 16L51 23L59 23L56 16L54 16z"/>
<path style="fill:#38a734; stroke:none;" d="M68 18L63 28L74 28L68 18z"/>
<path style="fill:#0b602b; stroke:none;" d="M45 27L53 40L60 27L45 27z"/>
<path style="fill:#37a53d; stroke:none;" d="M30 31L37 44L23 44L31 57L45 31L30 31z"/>
<path style="fill:#e0be21; stroke:none;" d="M60 31L66 44L68 44L74 31L60 31z"/>
<path style="fill:#ccad00; stroke:none;" d="M74 31L82 44L89 31L74 31z"/>
<path style="fill:#0f9846; stroke:none;" d="M29 32L23 44L37 44L31 32L29 32z"/>
<path style="fill:#157f3d; stroke:none;" d="M44 32L38 44L52 44L44 32z"/>
<path style="fill:#ebb100; stroke:none;" d="M59 32L53 44L66 44L59 32z"/>
<path style="fill:#bd951d; stroke:none;" d="M74 32L68 44L81 44L74 32z"/>
<path style="fill:#78ba33; stroke:none;" d="M22 45L16 57L30 57L22 45z"/>
<path style="fill:#afcb21; stroke:none;" d="M15 57L23 70L30 57L15 57z"/>
<path style="fill:#32b6e6; stroke:none;" d="M30 58L23 70L37 70L30 58z"/>
<path style="fill:#1d6cb1; stroke:none;" d="M31 58C32.1709 61.7003 34.3175 67.6586 37.6373 69.9722C41.7654 72.849 62.3848 72.6556 66.6103 69.9722C70.1766 67.7075 72.3905 61.7351 74 58C61.1819 58 59.0348 59.3348 52 70C46.8442 58.9571 42.571 58 31 58z"/>
<path style="fill:#2b98d2; stroke:none;" d="M45 58L52 70L59 58L45 58z"/>
<path style="fill:#274790; stroke:none;" d="M67 71C79.5066 71 83.4594 69.8671 89 58C76.6664 58 72.0664 58.8951 67 71z"/>
<path style="fill:#930048; stroke:none;" d="M89 58L82 70L96 70L89 58z"/>
<path style="fill:#eb7f00; stroke:none;" d="M5 65C5 72.7706 2.08689 87.9216 6.17901 94.6713C8.49752 98.4955 14.2909 100.59 18 102.799C27.9287 108.712 47.1716 124.869 59 123.744C68.9196 122.8 80.4958 112.888 89 108C95.113 104.487 106.555 100.399 109.972 93.9568C113.708 86.9129 111 72.8842 111 65L109 65C109 72.5091 111.176 84.1332 107.682 90.9599C102.454 101.177 80.763 108.824 71 114.421C67.2816 116.553 62.4571 120.551 58 120.551C53.543 120.551 48.7184 116.553 45 114.421C35.1803 108.792 13.5472 101.17 8.17901 90.9599C4.70758 84.3572 7 72.3291 7 65L5 65z"/>
<path style="fill:#550028; stroke:none;" d="M82 70L89 83L97 70L82 70z"/>
<path style="fill:#930048; stroke:none;" d="M81 71L74 84L89 84L81 71z"/>
<path style="fill:#a70000; stroke:none;" d="M30 84L23 97L38 97L30 84z"/>
<path style="fill:#dd0003; stroke:none;" d="M31 84L37 96L38 96L44 84L31 84z"/>
<path style="fill:#ff3600; stroke:none;" d="M45 84C46.9436 87.6901 49.0491 93.5789 52.6096 95.9722C62.7542 102.791 70.6976 91.8903 74 84L45 84z"/>
<path style="fill:#eb7f00; stroke:none;" d="M74 84L67 97L82 97L74 84z"/>
<path style="fill:#c20064; stroke:none;" d="M75 84L81 96L83 96L89 84L75 84z"/>
<path style="fill:#ff3600; stroke:none;" d="M44 89L38 101L52 101L46 89L44 89z"/>
<path style="fill:#f80079; stroke:none;" d="M34 102L37 109L38 109L42 102L34 102z"/>
<path style="fill:#930048; stroke:none;" d="M49 104L45 113L56 113L51 104L49 104z"/>
<path style="fill:#ff9c00; stroke:none;" d="M38 116L36 122L42 122L38 116z"/>
</svg>
